# xmcd
#
# Track frame offsets: 
#        150
#        17098
#        33096
#        47648
#        66395
#        84401
#        104474
#        123691
#        140886
#        161759
#        177487
#
# Disc length: 2566 seconds
#
# Revision: 1
# Processed by: cddbd v1.5.2PL0 Copyright (c) Steve Scherf et al.
# Submitted via: ExactAudioCopy v1.3
#
DISCID=9c0a040b
DTITLE=Kellie Pickler - Small Town Girl
DYEAR=2007
DGENRE=Country/Rock
TTITLE0=Red High Heels
TTITLE1=Gotta Keep Moving
TTITLE2=Things That Never Cross A Man's Mind
TTITLE3=Didn't You Know How Much I Loved You?
TTITLE4=I Wonder
TTITLE5=Small Town Girl
TTITLE6=Wild Ponies
TTITLE7=Girls Like Me
TTITLE8=I'm On My Way
TTITLE9=One Of The Guys
TTITLE10=My Angel
EXTD=
EXTT0=
EXTT1=
EXTT2=
EXTT3=
EXTT4=
EXTT5=
EXTT6=
EXTT7=
EXTT8=
EXTT9=
EXTT10=
PLAYORDER=
